<svg width="1216" height="23" viewBox="0 0 1216 23" fill="none" xmlns="http://www.w3.org/2000/svg">
<path d="M4.312 18.112C3.992 18.112 3.66133 18.104 3.32 18.088C2.97867 18.072 2.63467 18.048 2.288 18.016C1.94133 17.9893 1.6 17.9547 1.264 17.912V6.376C1.6 6.30667 1.952 6.24533 2.32 6.192C2.688 6.13867 3.06933 6.09867 3.464 6.072C3.864 6.04533 4.26933 6.032 4.68 6.032C5.77867 6.032 6.67467 6.14933 7.368 6.384C8.06133 6.61867 8.57067 6.97333 8.896 7.448C9.22133 7.91733 9.384 8.50933 9.384 9.224C9.384 9.67733 9.30133 10.0933 9.136 10.472C8.97067 10.8507 8.71467 11.1707 8.368 11.432C8.02133 11.688 7.57867 11.8613 7.04 11.952L7.056 11.84C7.93067 11.9467 8.592 12.2533 9.04 12.76C9.49333 13.2613 9.72 13.9253 9.72 14.752C9.72 15.2907 9.62133 15.7707 9.424 16.192C9.22667 16.6133 8.91467 16.9653 8.488 17.248C8.06133 17.5307 7.504 17.7467 6.816 17.896C6.128 18.04 5.29333 18.112 4.312 18.112ZM4.704 16.816C5.568 16.816 6.248 16.7387 6.744 16.584C7.24 16.424 7.59467 16.1893 7.808 15.88C8.02133 15.5653 8.128 15.168 8.128 14.688C8.128 13.9733 7.90133 13.4453 7.448 13.104C7 12.7627 6.28 12.592 5.288 12.592H2.72V11.272H5.056C5.712 11.272 6.23733 11.2 6.632 11.056C7.032 10.9067 7.32267 10.688 7.504 10.4C7.68533 10.1067 7.776 9.74133 7.776 9.304C7.776 8.6 7.55467 8.096 7.112 7.792C6.66933 7.48267 5.92 7.328 4.864 7.328C4.47467 7.328 4.12533 7.34133 3.816 7.368C3.50667 7.39467 3.21067 7.43467 2.928 7.488V16.72C3.22667 16.7573 3.51733 16.784 3.8 16.8C4.088 16.8107 4.38933 16.816 4.704 16.816ZM15.21 18.144C14.3673 18.144 13.706 17.928 13.226 17.496C12.7513 17.064 12.514 16.4747 12.514 15.728C12.514 14.9547 12.7753 14.3493 13.298 13.912C13.8207 13.4747 14.658 13.2053 15.81 13.104L17.994 12.888L18.162 13.904L15.954 14.128C15.3247 14.192 14.8713 14.344 14.594 14.584C14.322 14.8187 14.186 15.1493 14.186 15.576C14.186 16.008 14.3113 16.3413 14.562 16.576C14.818 16.8053 15.1913 16.92 15.682 16.92C16.0233 16.92 16.3647 16.8507 16.706 16.712C17.0473 16.5733 17.354 16.3413 17.626 16.016V12.368C17.626 11.8773 17.5487 11.496 17.394 11.224C17.2393 10.952 17.002 10.76 16.682 10.648C16.362 10.536 15.954 10.48 15.458 10.48C15.1273 10.48 14.754 10.5093 14.338 10.568C13.922 10.6267 13.5113 10.7227 13.106 10.856V9.544C13.4953 9.416 13.9247 9.32 14.394 9.256C14.8633 9.192 15.3033 9.16 15.714 9.16C16.5087 9.16 17.1673 9.264 17.69 9.472C18.218 9.67467 18.61 10.016 18.866 10.496C19.1273 10.976 19.258 11.632 19.258 12.464V18H17.874L17.754 17.064H17.658C17.3807 17.4213 17.026 17.6907 16.594 17.872C16.1673 18.0533 15.706 18.144 15.21 18.144ZM25.8391 21.68C25.4178 21.68 24.9698 21.648 24.4951 21.584C24.0258 21.52 23.5831 21.4267 23.1671 21.304V19.944C23.6311 20.0827 24.0765 20.184 24.5031 20.248C24.9351 20.3173 25.3431 20.352 25.7271 20.352C26.6391 20.352 27.3085 20.1627 27.7351 19.784C28.1671 19.4053 28.3831 18.7573 28.3831 17.84V17.08H28.2951C28.0391 17.384 27.7111 17.6293 27.3111 17.816C26.9111 18.0027 26.4525 18.096 25.9351 18.096C25.3378 18.096 24.7858 17.9547 24.2791 17.672C23.7725 17.384 23.3645 16.928 23.0551 16.304C22.7458 15.6747 22.5911 14.848 22.5911 13.824C22.5911 12.2773 22.9751 11.1147 23.7431 10.336C24.5165 9.552 25.6578 9.16 27.1671 9.16C27.4871 9.16 27.8151 9.17867 28.1511 9.216C28.4925 9.248 28.8258 9.296 29.1511 9.36C29.4765 9.41867 29.7778 9.49333 30.0551 9.584V17.56C30.0551 19.0213 29.7031 20.072 28.9991 20.712C28.3005 21.3573 27.2471 21.68 25.8391 21.68ZM26.4951 16.696C26.8418 16.696 27.1831 16.6267 27.5191 16.488C27.8605 16.3493 28.1485 16.1333 28.3831 15.84V10.64C28.2071 10.592 27.9991 10.5547 27.7591 10.528C27.5245 10.496 27.2818 10.48 27.0311 10.48C26.1405 10.48 25.4605 10.728 24.9911 11.224C24.5218 11.72 24.2871 12.536 24.2871 13.672C24.2871 14.4613 24.3805 15.0747 24.5671 15.512C24.7591 15.9493 25.0205 16.256 25.3511 16.432C25.6818 16.608 26.0631 16.696 26.4951 16.696ZM36.1364 18.16C35.683 18.16 35.2457 18.128 34.8244 18.064C34.403 18.0053 33.9977 17.9173 33.6084 17.8V16.512C34.035 16.6347 34.4537 16.728 34.8644 16.792C35.2804 16.8507 35.7017 16.88 36.1284 16.88C36.827 16.88 37.3284 16.768 37.6324 16.544C37.9417 16.32 38.0964 16.0053 38.0964 15.6C38.0964 15.2587 38.0084 15 37.8324 14.824C37.6564 14.6427 37.355 14.5067 36.9284 14.416L35.6804 14.168C34.875 14.0027 34.2964 13.7227 33.9444 13.328C33.5977 12.928 33.4244 12.4053 33.4244 11.76C33.4244 10.9973 33.723 10.3733 34.3204 9.888C34.923 9.40267 35.843 9.16 37.0804 9.16C37.4644 9.16 37.8377 9.184 38.2004 9.232C38.563 9.27467 38.9017 9.33867 39.2164 9.424V10.712C38.8697 10.616 38.5257 10.5467 38.1844 10.504C37.843 10.4613 37.4884 10.44 37.1204 10.44C36.587 10.44 36.1657 10.4987 35.8564 10.616C35.5524 10.728 35.3337 10.88 35.2004 11.072C35.0724 11.264 35.0084 11.48 35.0084 11.72C35.0084 12.0133 35.091 12.256 35.2564 12.448C35.427 12.64 35.723 12.784 36.1444 12.88L37.3924 13.12C38.187 13.28 38.7657 13.552 39.1284 13.936C39.4964 14.3147 39.6804 14.8453 39.6804 15.528C39.6804 16.3387 39.3764 16.9813 38.7684 17.456C38.1657 17.9253 37.2884 18.16 36.1364 18.16Z" fill="#E5DFD9"/>
<circle cx="51.5" cy="12" r="2.5" fill="#E5DFD9"/>
<path d="M66.312 18.112C65.992 18.112 65.6613 18.104 65.32 18.088C64.9787 18.072 64.6347 18.048 64.288 18.016C63.9413 17.9893 63.6 17.9547 63.264 17.912V6.376C63.6 6.30667 63.952 6.24533 64.32 6.192C64.688 6.13867 65.0693 6.09867 65.464 6.072C65.864 6.04533 66.2693 6.032 66.68 6.032C67.7787 6.032 68.6747 6.14933 69.368 6.384C70.0613 6.61867 70.5707 6.97333 70.896 7.448C71.2213 7.91733 71.384 8.50933 71.384 9.224C71.384 9.67733 71.3013 10.0933 71.136 10.472C70.9707 10.8507 70.7147 11.1707 70.368 11.432C70.0213 11.688 69.5787 11.8613 69.04 11.952L69.056 11.84C69.9307 11.9467 70.592 12.2533 71.04 12.76C71.4933 13.2613 71.72 13.9253 71.72 14.752C71.72 15.2907 71.6213 15.7707 71.424 16.192C71.2267 16.6133 70.9147 16.9653 70.488 17.248C70.0613 17.5307 69.504 17.7467 68.816 17.896C68.128 18.04 67.2933 18.112 66.312 18.112ZM66.704 16.816C67.568 16.816 68.248 16.7387 68.744 16.584C69.24 16.424 69.5947 16.1893 69.808 15.88C70.0213 15.5653 70.128 15.168 70.128 14.688C70.128 13.9733 69.9013 13.4453 69.448 13.104C69 12.7627 68.28 12.592 67.288 12.592H64.72V11.272H67.056C67.712 11.272 68.2373 11.2 68.632 11.056C69.032 10.9067 69.3227 10.688 69.504 10.4C69.6853 10.1067 69.776 9.74133 69.776 9.304C69.776 8.6 69.5547 8.096 69.112 7.792C68.6693 7.48267 67.92 7.328 66.864 7.328C66.4747 7.328 66.1253 7.34133 65.816 7.368C65.5067 7.39467 65.2107 7.43467 64.928 7.488V16.72C65.2267 16.7573 65.5173 16.784 65.8 16.8C66.088 16.8107 66.3893 16.816 66.704 16.816ZM77.21 18.144C76.3673 18.144 75.706 17.928 75.226 17.496C74.7513 17.064 74.514 16.4747 74.514 15.728C74.514 14.9547 74.7753 14.3493 75.298 13.912C75.8207 13.4747 76.658 13.2053 77.81 13.104L79.994 12.888L80.162 13.904L77.954 14.128C77.3247 14.192 76.8713 14.344 76.594 14.584C76.322 14.8187 76.186 15.1493 76.186 15.576C76.186 16.008 76.3113 16.3413 76.562 16.576C76.818 16.8053 77.1913 16.92 77.682 16.92C78.0233 16.92 78.3647 16.8507 78.706 16.712C79.0473 16.5733 79.354 16.3413 79.626 16.016V12.368C79.626 11.8773 79.5487 11.496 79.394 11.224C79.2393 10.952 79.002 10.76 78.682 10.648C78.362 10.536 77.954 10.48 77.458 10.48C77.1273 10.48 76.754 10.5093 76.338 10.568C75.922 10.6267 75.5113 10.7227 75.106 10.856V9.544C75.4953 9.416 75.9247 9.32 76.394 9.256C76.8633 9.192 77.3033 9.16 77.714 9.16C78.5087 9.16 79.1673 9.264 79.69 9.472C80.218 9.67467 80.61 10.016 80.866 10.496C81.1273 10.976 81.258 11.632 81.258 12.464V18H79.874L79.754 17.064H79.658C79.3807 17.4213 79.026 17.6907 78.594 17.872C78.1673 18.0533 77.706 18.144 77.21 18.144ZM88.6551 18.16C87.7858 18.16 87.0471 18 86.4391 17.68C85.8365 17.36 85.3778 16.8693 85.0631 16.208C84.7485 15.5467 84.5911 14.696 84.5911 13.656C84.5911 12.6107 84.7591 11.7573 85.0951 11.096C85.4365 10.4347 85.9325 9.94667 86.5831 9.632C87.2338 9.31733 88.0258 9.16 88.9591 9.16C89.2791 9.16 89.5938 9.17867 89.9031 9.216C90.2125 9.25333 90.5085 9.30667 90.7911 9.376V10.752C90.5085 10.6827 90.2311 10.632 89.9591 10.6C89.6925 10.5627 89.4258 10.544 89.1591 10.544C88.5191 10.544 87.9885 10.6453 87.5671 10.848C87.1458 11.0507 86.8311 11.3787 86.6231 11.832C86.4205 12.28 86.3191 12.88 86.3191 13.632C86.3191 14.4 86.4151 15.0133 86.6071 15.472C86.8045 15.9307 87.0951 16.2613 87.4791 16.464C87.8631 16.6667 88.3378 16.768 88.9031 16.768C89.1805 16.768 89.4685 16.7413 89.7671 16.688C90.0711 16.6347 90.4125 16.552 90.7911 16.44V17.808C90.4605 17.92 90.1138 18.0053 89.7511 18.064C89.3885 18.128 89.0231 18.16 88.6551 18.16ZM99.8 18L96.432 13.536L99.56 9.296H101.384L98.152 13.736V13.288L101.656 18H99.8ZM95.424 14.224V12.856H97.088V14.224H95.424ZM93.928 18V5.072H95.6V18H93.928ZM104.169 21.52V9.296H105.585L105.697 10.248H105.785C106.041 9.92267 106.371 9.66133 106.777 9.464C107.182 9.26133 107.643 9.16 108.161 9.16C108.79 9.16 109.366 9.30133 109.889 9.584C110.417 9.86667 110.838 10.3253 111.153 10.96C111.473 11.5893 111.633 12.432 111.633 13.488C111.633 14.5227 111.462 15.3867 111.121 16.08C110.779 16.768 110.273 17.2853 109.601 17.632C108.934 17.9787 108.11 18.152 107.129 18.152C106.91 18.152 106.689 18.1413 106.465 18.12C106.241 18.104 106.033 18.0827 105.841 18.056V21.52H104.169ZM107.145 16.832C108.073 16.832 108.769 16.584 109.233 16.088C109.702 15.5867 109.937 14.7653 109.937 13.624C109.937 12.8293 109.841 12.2107 109.649 11.768C109.462 11.3253 109.201 11.0133 108.865 10.832C108.534 10.6507 108.155 10.56 107.729 10.56C107.382 10.56 107.038 10.6347 106.697 10.784C106.361 10.928 106.075 11.1627 105.841 11.488V16.696C106.017 16.7387 106.222 16.7733 106.457 16.8C106.691 16.8213 106.921 16.832 107.145 16.832ZM117.282 18.144C116.439 18.144 115.778 17.928 115.298 17.496C114.823 17.064 114.586 16.4747 114.586 15.728C114.586 14.9547 114.847 14.3493 115.37 13.912C115.893 13.4747 116.73 13.2053 117.882 13.104L120.066 12.888L120.234 13.904L118.026 14.128C117.397 14.192 116.943 14.344 116.666 14.584C116.394 14.8187 116.258 15.1493 116.258 15.576C116.258 16.008 116.383 16.3413 116.634 16.576C116.89 16.8053 117.263 16.92 117.754 16.92C118.095 16.92 118.437 16.8507 118.778 16.712C119.119 16.5733 119.426 16.3413 119.698 16.016V12.368C119.698 11.8773 119.621 11.496 119.466 11.224C119.311 10.952 119.074 10.76 118.754 10.648C118.434 10.536 118.026 10.48 117.53 10.48C117.199 10.48 116.826 10.5093 116.41 10.568C115.994 10.6267 115.583 10.7227 115.178 10.856V9.544C115.567 9.416 115.997 9.32 116.466 9.256C116.935 9.192 117.375 9.16 117.786 9.16C118.581 9.16 119.239 9.264 119.762 9.472C120.29 9.67467 120.682 10.016 120.938 10.496C121.199 10.976 121.33 11.632 121.33 12.464V18H119.946L119.826 17.064H119.73C119.453 17.4213 119.098 17.6907 118.666 17.872C118.239 18.0533 117.778 18.144 117.282 18.144ZM128.727 18.16C127.858 18.16 127.119 18 126.511 17.68C125.908 17.36 125.45 16.8693 125.135 16.208C124.82 15.5467 124.663 14.696 124.663 13.656C124.663 12.6107 124.831 11.7573 125.167 11.096C125.508 10.4347 126.004 9.94667 126.655 9.632C127.306 9.31733 128.098 9.16 129.031 9.16C129.351 9.16 129.666 9.17867 129.975 9.216C130.284 9.25333 130.58 9.30667 130.863 9.376V10.752C130.58 10.6827 130.303 10.632 130.031 10.6C129.764 10.5627 129.498 10.544 129.231 10.544C128.591 10.544 128.06 10.6453 127.639 10.848C127.218 11.0507 126.903 11.3787 126.695 11.832C126.492 12.28 126.391 12.88 126.391 13.632C126.391 14.4 126.487 15.0133 126.679 15.472C126.876 15.9307 127.167 16.2613 127.551 16.464C127.935 16.6667 128.41 16.768 128.975 16.768C129.252 16.768 129.54 16.7413 129.839 16.688C130.143 16.6347 130.484 16.552 130.863 16.44V17.808C130.532 17.92 130.186 18.0053 129.823 18.064C129.46 18.128 129.095 18.16 128.727 18.16ZM139.872 18L136.504 13.536L139.632 9.296H141.456L138.224 13.736V13.288L141.728 18H139.872ZM135.496 14.224V12.856H137.16V14.224H135.496ZM134 18V5.072H135.672V18H134ZM146.371 18.16C145.917 18.16 145.48 18.128 145.059 18.064C144.637 18.0053 144.232 17.9173 143.843 17.8V16.512C144.269 16.6347 144.688 16.728 145.099 16.792C145.515 16.8507 145.936 16.88 146.363 16.88C147.061 16.88 147.563 16.768 147.867 16.544C148.176 16.32 148.331 16.0053 148.331 15.6C148.331 15.2587 148.243 15 148.067 14.824C147.891 14.6427 147.589 14.5067 147.163 14.416L145.915 14.168C145.109 14.0027 144.531 13.7227 144.179 13.328C143.832 12.928 143.659 12.4053 143.659 11.76C143.659 10.9973 143.957 10.3733 144.555 9.888C145.157 9.40267 146.077 9.16 147.315 9.16C147.699 9.16 148.072 9.184 148.435 9.232C148.797 9.27467 149.136 9.33867 149.451 9.424V10.712C149.104 10.616 148.76 10.5467 148.419 10.504C148.077 10.4613 147.723 10.44 147.355 10.44C146.821 10.44 146.4 10.4987 146.091 10.616C145.787 10.728 145.568 10.88 145.435 11.072C145.307 11.264 145.243 11.48 145.243 11.72C145.243 12.0133 145.325 12.256 145.491 12.448C145.661 12.64 145.957 12.784 146.379 12.88L147.627 13.12C148.421 13.28 149 13.552 149.363 13.936C149.731 14.3147 149.915 14.8453 149.915 15.528C149.915 16.3387 149.611 16.9813 149.003 17.456C148.4 17.9253 147.523 18.16 146.371 18.16Z" fill="#E5DFD9"/>
<path d="M1089.05 18V7.28L1089.66 7.768L1086.2 10.216V8.584L1089.66 6.12H1090.75V18H1089.05ZM1097.01 18.152C1096.5 18.152 1096 18.1147 1095.5 18.04C1095.01 17.9653 1094.53 17.856 1094.09 17.712V16.384C1094.54 16.528 1095.02 16.64 1095.52 16.72C1096.02 16.7947 1096.5 16.832 1096.96 16.832C1097.92 16.832 1098.64 16.6507 1099.11 16.288C1099.58 15.92 1099.81 15.3867 1099.81 14.688C1099.81 14.0267 1099.59 13.5147 1099.15 13.152C1098.71 12.784 1098 12.6 1097.01 12.6H1095.5V11.264H1096.45C1097.45 11.264 1098.19 11.0853 1098.67 10.728C1099.16 10.3653 1099.4 9.85333 1099.4 9.192C1099.4 8.584 1099.2 8.12267 1098.79 7.808C1098.39 7.488 1097.78 7.328 1096.97 7.328C1096.52 7.328 1096.08 7.36533 1095.63 7.44C1095.19 7.51467 1094.76 7.62667 1094.34 7.776V6.448C1094.59 6.35733 1094.87 6.28 1095.18 6.216C1095.49 6.14667 1095.81 6.096 1096.14 6.064C1096.47 6.02667 1096.8 6.008 1097.12 6.008C1098.4 6.008 1099.38 6.27467 1100.04 6.808C1100.7 7.34133 1101.04 8.09333 1101.04 9.064C1101.04 9.81067 1100.81 10.4373 1100.37 10.944C1099.92 11.4507 1099.31 11.7867 1098.53 11.952L1098.54 11.792C1099.48 11.9147 1100.19 12.232 1100.69 12.744C1101.18 13.2507 1101.43 13.928 1101.43 14.776C1101.43 15.48 1101.26 16.0853 1100.93 16.592C1100.61 17.0933 1100.12 17.48 1099.46 17.752C1098.81 18.0187 1097.99 18.152 1097.01 18.152ZM1110.24 21.52V9.296H1111.66L1111.77 10.248H1111.86C1112.11 9.92267 1112.44 9.66133 1112.85 9.464C1113.25 9.26133 1113.72 9.16 1114.23 9.16C1114.86 9.16 1115.44 9.30133 1115.96 9.584C1116.49 9.86667 1116.91 10.3253 1117.22 10.96C1117.54 11.5893 1117.7 12.432 1117.7 13.488C1117.7 14.5227 1117.53 15.3867 1117.19 16.08C1116.85 16.768 1116.34 17.2853 1115.67 17.632C1115.01 17.9787 1114.18 18.152 1113.2 18.152C1112.98 18.152 1112.76 18.1413 1112.54 18.12C1112.31 18.104 1112.1 18.0827 1111.91 18.056V21.52H1110.24ZM1113.22 16.832C1114.14 16.832 1114.84 16.584 1115.3 16.088C1115.77 15.5867 1116.01 14.7653 1116.01 13.624C1116.01 12.8293 1115.91 12.2107 1115.72 11.768C1115.53 11.3253 1115.27 11.0133 1114.94 10.832C1114.61 10.6507 1114.23 10.56 1113.8 10.56C1113.45 10.56 1113.11 10.6347 1112.77 10.784C1112.43 10.928 1112.15 11.1627 1111.91 11.488V16.696C1112.09 16.7387 1112.29 16.7733 1112.53 16.8C1112.76 16.8213 1112.99 16.832 1113.22 16.832ZM1121.12 18V9.296H1122.51L1122.64 10.448H1122.73C1123.01 10.032 1123.37 9.72 1123.81 9.512C1124.25 9.304 1124.71 9.2 1125.2 9.2C1125.33 9.2 1125.45 9.20533 1125.57 9.216C1125.69 9.22667 1125.8 9.24267 1125.9 9.264V10.792C1125.77 10.7707 1125.64 10.7573 1125.51 10.752C1125.38 10.7413 1125.25 10.736 1125.11 10.736C1124.84 10.736 1124.55 10.7787 1124.26 10.864C1123.97 10.944 1123.7 11.0667 1123.44 11.232C1123.19 11.3973 1122.97 11.6027 1122.79 11.848V18H1121.12ZM1131.98 18.16C1131.2 18.16 1130.52 18 1129.93 17.68C1129.36 17.36 1128.91 16.8693 1128.59 16.208C1128.27 15.5467 1128.11 14.6987 1128.11 13.664C1128.11 12.624 1128.27 11.7733 1128.58 11.112C1128.9 10.4507 1129.34 9.96 1129.92 9.64C1130.5 9.32 1131.19 9.16 1131.98 9.16C1132.78 9.16 1133.46 9.32 1134.04 9.64C1134.62 9.96 1135.07 10.4507 1135.38 11.112C1135.7 11.7733 1135.85 12.6213 1135.85 13.656C1135.85 14.6853 1135.69 15.5333 1135.37 16.2C1135.06 16.8667 1134.61 17.36 1134.03 17.68C1133.45 18 1132.77 18.16 1131.98 18.16ZM1131.98 16.84C1132.43 16.84 1132.82 16.744 1133.14 16.552C1133.47 16.3547 1133.72 16.0267 1133.89 15.568C1134.07 15.104 1134.16 14.472 1134.16 13.672C1134.16 12.8613 1134.07 12.224 1133.89 11.76C1133.72 11.296 1133.47 10.968 1133.14 10.776C1132.82 10.5787 1132.43 10.48 1131.98 10.48C1131.53 10.48 1131.15 10.576 1130.82 10.768C1130.5 10.96 1130.25 11.288 1130.07 11.752C1129.89 12.2107 1129.81 12.84 1129.81 13.64C1129.81 14.4507 1129.89 15.088 1130.06 15.552C1130.24 16.016 1130.49 16.3467 1130.81 16.544C1131.14 16.7413 1131.53 16.84 1131.98 16.84ZM1142.38 18.152C1141.75 18.152 1141.17 18.008 1140.64 17.72C1140.12 17.432 1139.7 16.9733 1139.38 16.344C1139.07 15.7093 1138.91 14.8693 1138.91 13.824C1138.91 12.7893 1139.08 11.928 1139.42 11.24C1139.77 10.5467 1140.27 10.0267 1140.94 9.68C1141.61 9.33333 1142.44 9.16 1143.42 9.16C1143.64 9.16 1143.86 9.17067 1144.09 9.192C1144.31 9.208 1144.52 9.22933 1144.7 9.256V5.072H1146.38V18H1144.96L1144.86 17.064H1144.76C1144.5 17.384 1144.17 17.6453 1143.77 17.848C1143.37 18.0507 1142.91 18.152 1142.38 18.152ZM1142.82 16.752C1143.17 16.752 1143.51 16.6773 1143.85 16.528C1144.18 16.3787 1144.47 16.144 1144.7 15.824V10.616C1144.53 10.5733 1144.32 10.5413 1144.09 10.52C1143.86 10.4933 1143.63 10.48 1143.4 10.48C1142.48 10.48 1141.78 10.728 1141.31 11.224C1140.84 11.72 1140.61 12.5413 1140.61 13.688C1140.61 14.4773 1140.7 15.096 1140.89 15.544C1141.08 15.9867 1141.33 16.2987 1141.66 16.48C1142 16.6613 1142.38 16.752 1142.82 16.752ZM1152.99 18.144C1152.44 18.144 1151.95 18.0427 1151.52 17.84C1151.1 17.632 1150.76 17.296 1150.51 16.832C1150.27 16.368 1150.15 15.7493 1150.15 14.976V9.296H1151.82V14.88C1151.82 15.5573 1151.96 16.0267 1152.26 16.288C1152.56 16.5493 1152.94 16.68 1153.42 16.68C1153.65 16.68 1153.9 16.6453 1154.15 16.576C1154.41 16.5067 1154.66 16.3973 1154.9 16.248C1155.14 16.0987 1155.35 15.904 1155.54 15.664V9.296H1157.2V18H1155.81L1155.7 17.072H1155.61C1155.26 17.4293 1154.86 17.6987 1154.41 17.88C1153.96 18.056 1153.49 18.144 1152.99 18.144ZM1164.68 18.16C1163.81 18.16 1163.07 18 1162.46 17.68C1161.86 17.36 1161.4 16.8693 1161.09 16.208C1160.77 15.5467 1160.61 14.696 1160.61 13.656C1160.61 12.6107 1160.78 11.7573 1161.12 11.096C1161.46 10.4347 1161.95 9.94667 1162.61 9.632C1163.26 9.31733 1164.05 9.16 1164.98 9.16C1165.3 9.16 1165.62 9.17867 1165.93 9.216C1166.23 9.25333 1166.53 9.30667 1166.81 9.376V10.752C1166.53 10.6827 1166.25 10.632 1165.98 10.6C1165.71 10.5627 1165.45 10.544 1165.18 10.544C1164.54 10.544 1164.01 10.6453 1163.59 10.848C1163.17 11.0507 1162.85 11.3787 1162.65 11.832C1162.44 12.28 1162.34 12.88 1162.34 13.632C1162.34 14.4 1162.44 15.0133 1162.63 15.472C1162.83 15.9307 1163.12 16.2613 1163.5 16.464C1163.89 16.6667 1164.36 16.768 1164.93 16.768C1165.2 16.768 1165.49 16.7413 1165.79 16.688C1166.09 16.6347 1166.43 16.552 1166.81 16.44V17.808C1166.48 17.92 1166.14 18.0053 1165.77 18.064C1165.41 18.128 1165.05 18.16 1164.68 18.16ZM1173.52 18.152C1172.59 18.152 1171.86 17.9147 1171.34 17.44C1170.83 16.96 1170.57 16.2 1170.57 15.16V9.296L1170.86 6.16H1172.24V14.888C1172.24 15.576 1172.38 16.0587 1172.66 16.336C1172.94 16.608 1173.36 16.744 1173.92 16.744C1174.08 16.744 1174.24 16.7333 1174.4 16.712C1174.56 16.6907 1174.74 16.6587 1174.94 16.616V17.992C1174.72 18.04 1174.49 18.0773 1174.24 18.104C1174 18.136 1173.76 18.152 1173.52 18.152ZM1169 10.648V9.296H1174.84V10.648H1169ZM1179.88 18.16C1179.43 18.16 1178.99 18.128 1178.57 18.064C1178.15 18.0053 1177.74 17.9173 1177.36 17.8V16.512C1177.78 16.6347 1178.2 16.728 1178.61 16.792C1179.03 16.8507 1179.45 16.88 1179.88 16.88C1180.57 16.88 1181.08 16.768 1181.38 16.544C1181.69 16.32 1181.84 16.0053 1181.84 15.6C1181.84 15.2587 1181.76 15 1181.58 14.824C1181.4 14.6427 1181.1 14.5067 1180.68 14.416L1179.43 14.168C1178.62 14.0027 1178.04 13.7227 1177.69 13.328C1177.34 12.928 1177.17 12.4053 1177.17 11.76C1177.17 10.9973 1177.47 10.3733 1178.07 9.888C1178.67 9.40267 1179.59 9.16 1180.83 9.16C1181.21 9.16 1181.58 9.184 1181.95 9.232C1182.31 9.27467 1182.65 9.33867 1182.96 9.424V10.712C1182.62 10.616 1182.27 10.5467 1181.93 10.504C1181.59 10.4613 1181.24 10.44 1180.87 10.44C1180.33 10.44 1179.91 10.4987 1179.6 10.616C1179.3 10.728 1179.08 10.88 1178.95 11.072C1178.82 11.264 1178.76 11.48 1178.76 11.72C1178.76 12.0133 1178.84 12.256 1179 12.448C1179.17 12.64 1179.47 12.784 1179.89 12.88L1181.14 13.12C1181.93 13.28 1182.51 13.552 1182.88 13.936C1183.24 14.3147 1183.43 14.8453 1183.43 15.528C1183.43 16.3387 1183.12 16.9813 1182.52 17.456C1181.91 17.9253 1181.04 18.16 1179.88 18.16Z" fill="#E5DFD9"/>
<path d="M1198 10.7805V22H1214.67V10.7805M1206.33 15.6585V2M1206.33 2L1211.75 7.41667M1206.33 2L1200.92 7.41667" stroke="#E5DFD9" stroke-width="2" stroke-linecap="round"/>
</svg>
